{
 "id": 1087616,
 "bug_id": 244002,
 "attachment_id": 0,
 "creation_time": "2020-02-10T12:06:39Z",
 "creator": "admin@support.od.ua",
 "text": "Thanks.\nall works!\n\n#ffmpeg -i udp://@239.2.147.238:1234\n...\n\nInput #0, mpegts, from 'udp://@239.2.147.238:1234':\n  Duration: N/A, start: 10866.865244, bitrate: N/A\n  Program 1\n    Metadata:\n      service_name    : Service01\n      service_provider: R48\n    Stream #0:0[0x100]: Video: h264 (High) ([27][0][0][0] / 0x001B), yuv420p(progressive), 1280x720 [SAR 1:1 DAR 16:9], 25 fps, 25 tbr, 90k tbn, 50 tbc\n    Stream #0:1[0x101]: Audio: aac (LC) ([15][0][0][0] / 0x000F), 48000 Hz, stereo, fltp, 124 kb/s\nAt least one output file must be specified"
}